<svg fill="none" height="25" viewBox="0 0 27 25" width="27" xmlns="http://www.w3.org/2000/svg">
    <path clip-rule="evenodd"
        d="M22.1449 0C23.1793 0 24.1712 0.410892 24.9026 1.14228C25.634 1.87368 26.0449 2.86566 26.0449 3.9V16.9C26.0449 17.9343 25.634 18.9263 24.9026 19.6577C24.1712 20.3891 23.1793 20.8 22.1449 20.8H6.97782L2.64492 24.05C1.57372 24.8534 0.0449219 24.089 0.0449219 22.75V3.9C0.0449219 2.86566 0.455814 1.87368 1.18721 1.14228C1.9186 0.410892 2.91058 0 3.94492 0H22.1449ZM11.7449 11.7H7.84492C7.50014 11.7 7.16948 11.837 6.92568 12.0808C6.68189 12.3246 6.54492 12.6552 6.54492 13C6.54492 13.3448 6.68189 13.6754 6.92568 13.9192C7.16948 14.163 7.50014 14.3 7.84492 14.3H11.7449C12.0897 14.3 12.4204 14.163 12.6642 13.9192C12.908 13.6754 13.0449 13.3448 13.0449 13C13.0449 12.6552 12.908 12.3246 12.6642 12.0808C12.4204 11.837 12.0897 11.7 11.7449 11.7ZM18.2449 6.5H7.84492C7.51358 6.50037 7.19488 6.62724 6.95394 6.8547C6.71301 7.08216 6.56802 7.39304 6.5486 7.72381C6.52918 8.05459 6.6368 8.38029 6.84947 8.63438C7.06213 8.88847 7.3638 9.05177 7.69282 9.0909L7.84492 9.1H18.2449C18.5763 9.09963 18.895 8.97276 19.1359 8.7453C19.3768 8.51784 19.5218 8.20696 19.5412 7.87619C19.5607 7.54541 19.453 7.21971 19.2404 6.96562C19.0277 6.71153 18.726 6.54823 18.397 6.5091L18.2449 6.5Z"
        fill="#2E2E2E" fill-rule="evenodd" />
</svg>
