<svg fill="none" height="50" viewBox="0 0 50 50" width="50" xmlns="http://www.w3.org/2000/svg">
    <rect fill="#C3362F" height="50" rx="10" width="50" />
    <path clip-rule="evenodd" d="M34.1449 13C35.1793 13 36.1712 13.4109 36.9026 14.1423C37.634 14.8737 38.0449 15.8657 38.0449 16.9V29.9C38.0449 30.9343 37.634 31.9263 36.9026 32.6577C36.1712 33.3891 35.1793 33.8 34.1449 33.8H18.9778L14.6449 37.05C13.5737 37.8534 12.0449 37.089 12.0449 35.75V16.9C12.0449 15.8657 12.4558 14.8737 13.1872 14.1423C13.9186 13.4109 14.9106 13 15.9449 13H34.1449ZM23.7449 24.7H19.8449C19.5001 24.7 19.1695 24.837 18.9257 25.0808C18.6819 25.3246 18.5449 25.6552 18.5449 26C18.5449 26.3448 18.6819 26.6754 18.9257 26.9192C19.1695 27.163 19.5001 27.3 19.8449 27.3H23.7449C24.0897 27.3 24.4204 27.163 24.6642 26.9192C24.908 26.6754 25.0449 26.3448 25.0449 26C25.0449 25.6552 24.908 25.3246 24.6642 25.0808C24.4204 24.837 24.0897 24.7 23.7449 24.7ZM30.2449 19.5H19.8449C19.5136 19.5004 19.1949 19.6272 18.9539 19.8547C18.713 20.0822 18.568 20.393 18.5486 20.7238C18.5292 21.0546 18.6368 21.3803 18.8495 21.6344C19.0621 21.8885 19.3638 22.0518 19.6928 22.0909L19.8449 22.1H30.2449C30.5763 22.0996 30.895 21.9728 31.1359 21.7453C31.3768 21.5178 31.5218 21.207 31.5412 20.8762C31.5607 20.5454 31.453 20.2197 31.2404 19.9656C31.0277 19.7115 30.726 19.5482 30.397 19.5091L30.2449 19.5Z"
        fill="white"
        fill-rule="evenodd" />
</svg>
