<svg fill="none" height="24" viewBox="0 0 25 24" width="25" xmlns="http://www.w3.org/2000/svg">
    <path
        d="M21.7449 10.2613L13.587 10.261C13.2268 10.261 12.9348 10.5529 12.9348 10.9131V13.5192C12.9348 13.8794 13.2268 14.1714 13.587 14.1714H18.181C17.6779 15.4769 16.739 16.5702 15.5411 17.2649L17.5 20.6559C20.6423 18.8386 22.5 15.6499 22.5 12.0805C22.5 11.5722 22.4625 11.2089 22.3876 10.7998C22.3307 10.489 22.0608 10.2613 21.7449 10.2613Z"
        fill="#167EE6" />
    <path
        d="M12.4998 18.0869C10.2516 18.0869 8.28896 16.8586 7.23485 15.0409L3.84399 16.9953C5.56958 19.9861 8.80216 22 12.4998 22C14.3138 22 16.0254 21.5116 17.4998 20.6605V20.6558L15.5409 17.2648C14.6449 17.7845 13.6081 18.0869 12.4998 18.0869Z"
        fill="#12B347" />
    <path
        d="M17.5 20.6604V20.6558L15.5411 17.2648C14.6451 17.7844 13.6083 18.0869 12.5 18.0869V22C14.3139 22 16.0256 21.5116 17.5 20.6604Z"
        fill="#0F993E" />
    <path
        d="M6.41305 11.9999C6.41305 10.8918 6.71547 9.85502 7.23504 8.95905L3.84418 7.00459C2.98836 8.4744 2.5 10.1814 2.5 11.9999C2.5 13.8185 2.98836 15.5255 3.84418 16.9953L7.23504 15.0408C6.71547 14.1449 6.41305 13.1081 6.41305 11.9999Z"
        fill="#FFD500" />
    <path
        d="M12.4998 5.91305C13.9659 5.91305 15.3125 6.43398 16.3643 7.30051C16.6238 7.51426 17.001 7.49883 17.2387 7.26113L19.0852 5.41465C19.3549 5.14496 19.3356 4.70352 19.0475 4.45359C17.2852 2.92473 14.9923 2 12.4998 2C8.80216 2 5.56958 4.01395 3.84399 7.00465L7.23485 8.9591C8.28896 7.14141 10.2516 5.91305 12.4998 5.91305Z"
        fill="#FF4B26" />
    <path
        d="M16.3645 7.30051C16.624 7.51426 17.0012 7.49883 17.2389 7.26113L19.0854 5.41465C19.355 5.14496 19.3358 4.70352 19.0477 4.45359C17.2854 2.92469 14.9925 2 12.5 2V5.91305C13.966 5.91305 15.3127 6.43398 16.3645 7.30051Z"
        fill="#D93F21" />
    <path
        d="M21.7449 10.2613L13.587 10.261C13.2268 10.261 12.9348 10.5529 12.9348 10.9131V13.5192C12.9348 13.8794 13.2268 14.1714 13.587 14.1714H18.181C17.6779 15.4769 16.739 16.5702 15.5411 17.2649L17.5 20.6559C20.6423 18.8386 22.5 15.6499 22.5 12.0805C22.5 11.5722 22.4625 11.2089 22.3876 10.7998C22.3307 10.489 22.0608 10.2613 21.7449 10.2613Z"
        fill="#167EE6" />
    <path
        d="M12.4998 18.0869C10.2516 18.0869 8.28896 16.8586 7.23485 15.0409L3.84399 16.9953C5.56958 19.9861 8.80216 22 12.4998 22C14.3138 22 16.0254 21.5116 17.4998 20.6605V20.6558L15.5409 17.2648C14.6449 17.7845 13.6081 18.0869 12.4998 18.0869Z"
        fill="#12B347" />
    <path
        d="M17.5 20.6604V20.6558L15.5411 17.2648C14.6451 17.7844 13.6083 18.0869 12.5 18.0869V22C14.3139 22 16.0256 21.5116 17.5 20.6604Z"
        fill="#0F993E" />
    <path
        d="M6.41305 11.9999C6.41305 10.8918 6.71547 9.85502 7.23504 8.95905L3.84418 7.00459C2.98836 8.4744 2.5 10.1814 2.5 11.9999C2.5 13.8185 2.98836 15.5255 3.84418 16.9953L7.23504 15.0408C6.71547 14.1449 6.41305 13.1081 6.41305 11.9999Z"
        fill="#FFD500" />
    <path
        d="M12.4998 5.91305C13.9659 5.91305 15.3125 6.43398 16.3643 7.30051C16.6238 7.51426 17.001 7.49883 17.2387 7.26113L19.0852 5.41465C19.3549 5.14496 19.3356 4.70352 19.0475 4.45359C17.2852 2.92473 14.9923 2 12.4998 2C8.80216 2 5.56958 4.01395 3.84399 7.00465L7.23485 8.9591C8.28896 7.14141 10.2516 5.91305 12.4998 5.91305Z"
        fill="#FF4B26" />
    <path
        d="M16.3645 7.30051C16.624 7.51426 17.0012 7.49883 17.2389 7.26113L19.0854 5.41465C19.355 5.14496 19.3358 4.70352 19.0477 4.45359C17.2854 2.92469 14.9925 2 12.5 2V5.91305C13.966 5.91305 15.3127 6.43398 16.3645 7.30051Z"
        fill="#D93F21" />
</svg>
