<svg fill="none" height="50" viewBox="0 0 50 50" width="50" xmlns="http://www.w3.org/2000/svg">
    <rect fill="#C3362F" height="50" rx="10" width="50" />
    <path
        d="M22.3443 36.6734V28.7931H28.6486V36.6734C28.6486 37.5403 29.3579 38.2495 30.2247 38.2495H34.9529C35.8198 38.2495 36.529 37.5403 36.529 36.6734V25.6409H39.2083C39.9333 25.6409 40.2801 24.7426 39.7284 24.2697L26.5525 12.4019C25.9536 11.866 25.0394 11.866 24.4405 12.4019L11.2645 24.2697C10.7287 24.7426 11.0597 25.6409 11.7847 25.6409H14.464V36.6734C14.464 37.5403 15.1732 38.2495 16.0401 38.2495H20.7683C21.6351 38.2495 22.3443 37.5403 22.3443 36.6734Z"
        fill="white" />
</svg>
