<svg fill="none" height="28" viewBox="0 0 27 28" width="27" xmlns="http://www.w3.org/2000/svg">
    <circle cx="13.1779" cy="14.1225" fill="#FFEAEA" r="13.1779" />
    <path
        d="M13.8888 9.10537C13.7857 9.00226 13.6458 8.94434 13.4999 8.94434C13.3541 8.94434 13.2142 9.00226 13.1111 9.10537L8.16103 14.0554C8.08414 14.1323 8.03177 14.2303 8.01056 14.337C7.98935 14.4437 8.00024 14.5543 8.04186 14.6547C8.08348 14.7552 8.15396 14.8411 8.24438 14.9016C8.33481 14.962 8.44112 14.9943 8.54989 14.9943H9.09989V18.8443C9.09989 19.451 9.59325 19.9443 10.1999 19.9443H16.8C17.4066 19.9443 17.9 19.451 17.9 18.8443V14.9943H18.45C18.5589 14.9945 18.6654 14.9624 18.756 14.902C18.8466 14.8416 18.9172 14.7557 18.9588 14.6551C19.0005 14.5545 19.0113 14.4438 18.99 14.337C18.9686 14.2302 18.916 14.1322 18.8388 14.0554L13.8888 9.10537ZM16.8005 18.8443H10.1999V13.572L13.4999 10.2719L16.8 13.572V16.0943L16.8005 18.8443Z"
        fill="#C91C1C" />
    <path
        d="M14.0501 13.3444H12.9501V14.9944H11.3V16.0944H12.9501V17.7444H14.0501V16.0944H15.7001V14.9944H14.0501V13.3444Z"
        fill="#C91C1C" />
</svg>
