<svg fill="none" height="50" viewBox="0 0 50 50" width="50" xmlns="http://www.w3.org/2000/svg">
    <rect fill="#C3362F" height="50" rx="10" width="50" />
    <path clip-rule="evenodd"
        d="M24.0775 37.1675C24.0775 37.1675 15 29.5225 15 22C15 19.3478 16.0536 16.8043 17.9289 14.9289C19.8043 13.0536 22.3478 12 25 12C27.6522 12 30.1957 13.0536 32.0711 14.9289C33.9464 16.8043 35 19.3478 35 22C35 29.5225 25.9225 37.1675 25.9225 37.1675C25.4175 37.6325 24.5863 37.6275 24.0775 37.1675ZM25 26.375C25.5745 26.375 26.1434 26.2618 26.6742 26.042C27.205 25.8221 27.6873 25.4998 28.0936 25.0936C28.4998 24.6873 28.8221 24.205 29.042 23.6742C29.2618 23.1434 29.375 22.5745 29.375 22C29.375 21.4255 29.2618 20.8566 29.042 20.3258C28.8221 19.795 28.4998 19.3127 28.0936 18.9064C27.6873 18.5002 27.205 18.1779 26.6742 17.958C26.1434 17.7382 25.5745 17.625 25 17.625C23.8397 17.625 22.7269 18.0859 21.9064 18.9064C21.0859 19.7269 20.625 20.8397 20.625 22C20.625 23.1603 21.0859 24.2731 21.9064 25.0936C22.7269 25.9141 23.8397 26.375 25 26.375Z"
        fill="white" fill-rule="evenodd" />
</svg>
