<svg fill="none" height="28" viewBox="0 0 28 28" width="28" xmlns="http://www.w3.org/2000/svg">
    <circle cx="13.9269" cy="14.1043" fill="#FFEAEA" r="13.1779" />
    <path
        d="M18.8685 13.0063C18.8685 16.8499 13.9268 20.1443 13.9268 20.1443C13.9268 20.1443 8.98505 16.8499 8.98505 13.0063C8.98505 11.6957 9.50569 10.4387 10.4324 9.51197C11.3592 8.58522 12.6161 8.06458 13.9268 8.06458C15.2374 8.06458 16.4943 8.58522 17.4211 9.51197C18.3478 10.4387 18.8685 11.6957 18.8685 13.0063Z"
        stroke="#C91C1C" stroke-linecap="round" stroke-linejoin="round" stroke-width="1.09816" />
    <path
        d="M13.927 14.6535C14.8367 14.6535 15.5742 13.9161 15.5742 13.0063C15.5742 12.0966 14.8367 11.3591 13.927 11.3591C13.0172 11.3591 12.2797 12.0966 12.2797 13.0063C12.2797 13.9161 13.0172 14.6535 13.927 14.6535Z"
        stroke="#C91C1C" stroke-linecap="round" stroke-linejoin="round" stroke-width="1.09816" />
</svg>
