<svg fill="none" height="36" viewBox="0 0 28 36" width="28" xmlns="http://www.w3.org/2000/svg">
    <path
        d="M14 0C6.27667 0 0 6.27608 0 13.9987C0 18.7116 2.73 22.6546 5.90333 25.4076C6.90667 26.2709 8.65667 27.6474 10.22 29.6773C11.9467 31.9404 13.51 34.3668 14 36C14.49 34.3668 16.0533 31.9404 17.78 29.6773C19.3433 27.6474 21.0933 26.2709 22.0967 25.4076C25.27 22.6546 28 18.7116 28 13.9987C28 6.27608 21.7233 0 14 0ZM14 5.97278C15.0541 5.97278 16.0978 6.18038 17.0717 6.58372C18.0455 6.98706 18.9304 7.57824 19.6757 8.32352C20.4211 9.06879 21.0123 9.95357 21.4157 10.9273C21.8191 11.9011 22.0267 12.9447 22.0267 13.9987C22.0267 15.0527 21.8191 16.0963 21.4157 17.0701C21.0123 18.0438 20.4211 18.9286 19.6757 19.6739C18.9304 20.4192 18.0455 21.0103 17.0717 21.4137C16.0978 21.817 15.0541 22.0246 14 22.0246C11.8712 22.0246 9.82958 21.179 8.32429 19.6739C6.819 18.1687 5.97333 16.1273 5.97333 13.9987C5.97333 11.8701 6.819 9.82867 8.32429 8.32352C9.82958 6.81837 11.8712 5.97278 14 5.97278Z"
        fill="#5E5AB3" />
</svg>
