<svg fill="none" height="28" viewBox="0 0 27 28" width="27" xmlns="http://www.w3.org/2000/svg">
    <circle cx="13.178" cy="14.1225" fill="#FFEAEA" r="13.1779" />
    <path
        d="M13.4 13.3443C14.6155 13.3443 15.6 12.3598 15.6 11.1443C15.6 9.92884 14.6155 8.94434 13.4 8.94434C12.1845 8.94434 11.2 9.92884 11.2 11.1443C11.2 12.3598 12.1845 13.3443 13.4 13.3443ZM13.4 10.0443C14.005 10.0443 14.5 10.5393 14.5 11.1443C14.5 11.7493 14.005 12.2443 13.4 12.2443C12.795 12.2443 12.3 11.7493 12.3 11.1443C12.3 10.5393 12.795 10.0443 13.4 10.0443ZM16.9145 14.7523C15.9905 14.2793 14.7915 13.8943 13.4 13.8943C12.0085 13.8943 10.8095 14.2793 9.88554 14.7523C9.61717 14.8906 9.39235 15.1004 9.23604 15.3587C9.07973 15.617 8.99804 15.9135 9.00004 16.2153V19.9443H10.1V16.2153C10.1 16.0063 10.21 15.8193 10.375 15.7313C11.0405 15.3958 12.0965 14.9943 13.4 14.9943C13.818 14.9943 14.2085 15.0328 14.5715 15.1043L13.719 16.9193H12.1625C11.3265 16.9193 10.65 17.5958 10.65 18.4318C10.65 19.2678 11.3265 19.9443 12.1625 19.9443H16.7C17.305 19.9443 17.8 19.4493 17.8 18.8443V16.2153C17.8 15.5993 17.4645 15.0328 16.9145 14.7523ZM12.817 18.8443H12.1625C11.937 18.8443 11.75 18.6573 11.75 18.4318C11.75 18.2063 11.937 18.0193 12.1625 18.0193H13.202L12.817 18.8443ZM16.7 18.8443H14.0325L15.6495 15.3958C15.9465 15.5058 16.205 15.6213 16.425 15.7313C16.59 15.8193 16.7 16.0063 16.7 16.2153V18.8443Z"
        fill="#C91C1C" />
</svg>
