<svg fill="none" height="50" viewBox="0 0 50 50" width="50" xmlns="http://www.w3.org/2000/svg">
    <rect fill="#C3362F" height="50" rx="10" width="50" />
    <path clip-rule="evenodd" d="M19.2222 17.7778C19.2222 16.2454 19.831 14.7758 20.9145 13.6923C21.998 12.6087 23.4676 12 25 12C26.5324 12 28.002 12.6087 29.0855 13.6923C30.169 14.7758 30.7778 16.2454 30.7778 17.7778C30.7778 19.3101 30.169 20.7797 29.0855 21.8633C28.002 22.9468 26.5324 23.5556 25 23.5556C23.4676 23.5556 21.998 22.9468 20.9145 21.8633C19.831 20.7797 19.2222 19.3101 19.2222 17.7778ZM19.2222 26.4444C17.3068 26.4444 15.4698 27.2054 14.1153 28.5598C12.7609 29.9142 12 31.7512 12 33.6667C12 34.8159 12.4565 35.9181 13.2692 36.7308C14.0819 37.5435 15.1841 38 16.3333 38H33.6667C34.8159 38 35.9181 37.5435 36.7308 36.7308C37.5435 35.9181 38 34.8159 38 33.6667C38 31.7512 37.2391 29.9142 35.8847 28.5598C34.5302 27.2054 32.6932 26.4444 30.7778 26.4444H19.2222Z"
        fill="white"
        fill-rule="evenodd" />
</svg>
