<svg fill="none" height="17" viewBox="0 0 17 17" width="17" xmlns="http://www.w3.org/2000/svg">
    <path
        d="M12.2451 11.328L15.1145 14.1973L14.167 15.1449L11.2976 12.2755C10.2659 13.1009 8.95744 13.5947 7.53438 13.5947C4.20586 13.5947 1.50446 10.8933 1.50446 7.56477C1.50446 4.23626 4.20586 1.53485 7.53438 1.53485C10.8629 1.53485 13.5643 4.23626 13.5643 7.56477C13.5643 8.98783 13.0705 10.2963 12.2451 11.328ZM10.9009 10.8308C11.7201 9.98652 12.2243 8.83481 12.2243 7.56477C12.2243 4.97358 10.1256 2.87483 7.53438 2.87483C4.94319 2.87483 2.84444 4.97358 2.84444 7.56477C2.84444 10.156 4.94319 12.2547 7.53438 12.2547C8.80441 12.2547 9.95613 11.7505 10.8004 10.9313L10.9009 10.8308Z"
        fill="#353365" />
</svg>
